<svg width="15" height="15" viewBox="0 0 15 15" fill="none" xmlns="http://www.w3.org/2000/svg">
<path fill-rule="evenodd" clip-rule="evenodd" d="M15 7.5C15 11.6421 11.6421 15 7.5 15C3.35786 15 0 11.6421 0 7.5C0 3.35786 3.35786 0 7.5 0C11.6421 0 15 3.35786 15 7.5ZM6.25 4.25C6.25 3.55964 6.80964 3 7.5 3C8.19036 3 8.75 3.55965 8.75 4.25V6.125H10.625C11.3154 6.125 11.875 6.68465 11.875 7.375C11.875 8.06536 11.3154 8.625 10.625 8.625H8.75V10.5C8.75 11.1904 8.19036 11.75 7.5 11.75C6.80964 11.75 6.25 11.1904 6.25 10.5V8.625H4.375C3.68464 8.625 3.125 8.06536 3.125 7.375C3.125 6.68465 3.68464 6.125 4.375 6.125H6.25V4.25Z" fill="#2C7BE5"/>
</svg>
