<svg width="125" height="20" viewBox="0 0 125 20" fill="none" xmlns="http://www.w3.org/2000/svg">
<path d="M6.05311 3.34639H0V0C5.50582 0 10.1688 0 15.7074 0V3.34639H9.65433V19.5187H6.05311V3.34639Z" fill="#2C7BE5"/>
<path d="M24.902 5.77506H28.0982V19.5188H24.9567L24.7926 17.5154C24.0263 19.1382 21.9247 19.9105 20.4251 19.9441C16.4408 19.9664 13.4963 17.4594 13.4963 12.6357C13.4963 7.89033 16.5831 5.41691 20.5018 5.4393C22.2969 5.4393 24.0154 6.30108 24.7816 7.66649L24.902 5.77506ZM16.8349 12.6357C16.8349 15.2546 18.6081 16.8215 20.8192 16.8215C26.0513 16.8215 26.0513 8.48351 20.8192 8.48351C18.5971 8.47231 16.8349 10.0056 16.8349 12.6357Z" fill="#2C7BE5"/>
<path d="M39.679 9.42362C38.7267 8.50588 37.6321 8.19251 36.3515 8.19251C34.7643 8.19251 33.8996 8.69615 33.8996 9.55792C33.8996 10.4533 34.6877 10.9569 36.4062 11.0688C38.9456 11.2367 42.1638 11.8187 42.1638 15.4785C42.1638 17.9071 40.2263 20 36.3843 20C34.2608 20 32.1263 19.6419 30.167 17.549L31.7979 15.1203C32.7502 16.2059 34.9394 17.0118 36.439 17.0453C37.6978 17.0677 38.869 16.4074 38.869 15.4001C38.869 14.4488 38.1028 14.0571 36.1982 13.9452C33.6587 13.7549 30.6377 12.8036 30.6377 9.68104C30.6377 6.50253 33.8558 5.38333 36.3077 5.38333C38.4093 5.38333 39.9855 5.79743 41.5398 7.19643L39.679 9.42362Z" fill="#2C7BE5"/>
<path d="M47.5383 0.0219116V11.2922L52.0699 5.77457H56.0542V5.96483L50.5703 12.2435L56.8204 19.2721V19.5183H52.8142L47.5492 13.2956V19.5183H44.2107V0.0219116H47.5383Z" fill="#2C7BE5"/>
<path d="M58.5828 19.5183V0.0219116H72.298V3.55857H62.184V8.88593H71.7617V12.2883H62.184V19.5071H58.5828V19.5183Z" fill="#626263"/>
<path d="M77.8367 0.0219116V19.5183H74.542V0.0219116H77.8367Z" fill="#626263"/>
<path d="M84.1635 5.77505V12.9715C84.1635 15.0644 85.28 16.6536 87.4035 16.6536C89.4504 16.6536 90.8405 14.8965 90.8405 12.8036V5.77505H94.1352V19.5523H91.1579L90.939 17.6833C89.5489 19.0823 88.2682 19.7426 86.3855 19.7426C83.1674 19.7426 80.825 17.258 80.825 12.9939V5.77505H84.1635Z" fill="#626263"/>
<path d="M105.661 5.77505H109.646V5.88697L105.223 12.5462L109.919 19.4292V19.5076H105.935L103.012 14.9077L100.09 19.5076H96.1055V19.4292L100.801 12.5462L96.3791 5.88697V5.77505H100.363L103.012 10.4309L105.661 5.77505Z" fill="#626263"/>
<path d="M114.44 13.8556C114.659 15.5568 116.104 16.7879 118.446 16.7879C119.672 16.7879 121.281 16.3178 122.047 15.5008L124.171 17.6497C122.748 19.1606 120.438 19.8769 118.391 19.8769C113.75 19.8769 111.003 16.9446 111.003 12.5461C111.003 8.36036 113.783 5.34973 118.151 5.34973C122.649 5.34973 125.463 8.19248 124.937 13.8556H114.44ZM121.752 11.0464C121.533 9.26691 120.165 8.37156 118.26 8.37156C116.465 8.37156 114.987 9.26691 114.495 11.0464H121.752Z" fill="#626263"/>
</svg>
